<svg xmlns="http://www.w3.org/2000/svg" viewBox="0 0 140.66 59.1"><defs><style>.cls-1{fill:#efefef;}</style></defs><title>logo-wd_2</title><g id="Camada_2" data-name="Camada 2"><g id="Camada_1-2" data-name="Camada 1"><path class="cls-1" d="M41.16,52.65a1.56,1.56,0,0,0,1.4.58v.59a16.88,16.88,0,0,0-1.74-.08,17.56,17.56,0,0,0-4.07.39v-2.4a3.59,3.59,0,0,1-3.63,2.51,5.11,5.11,0,0,1-4.18-1.91q-1.55-1.92-1.52-5.77a9.57,9.57,0,0,1,.8-4.15,5.74,5.74,0,0,1,2.2-2.54A6.11,6.11,0,0,1,33.65,39a4.19,4.19,0,0,1,3.1,1.06V35.33a3.36,3.36,0,0,0-.41-1.87A1.56,1.56,0,0,0,35,32.88v-.59a17.08,17.08,0,0,0,1.73.08A18.07,18.07,0,0,0,40.77,32v18.8A3.47,3.47,0,0,0,41.16,52.65Zm-5.27-.28a2.9,2.9,0,0,0,.86-1.82V40.78a2.39,2.39,0,0,0-2-1,2.51,2.51,0,0,0-2.29,1.7,12.09,12.09,0,0,0-.78,5.09,12.63,12.63,0,0,0,.65,4.91,2.15,2.15,0,0,0,2,1.51A2.28,2.28,0,0,0,35.89,52.37Z"/><path class="cls-1" d="M49.54,51.25a2.33,2.33,0,0,0,.4,1.58,1.83,1.83,0,0,0,1.38.43v.59c-1.86-.08-3.1-.11-3.71-.11s-1.87,0-3.88.11v-.59a1.81,1.81,0,0,0,1.39-.43,2.39,2.39,0,0,0,.4-1.58v-8.8a3.46,3.46,0,0,0-.4-1.87A1.54,1.54,0,0,0,43.73,40v-.59a17.08,17.08,0,0,0,1.73.08,17.59,17.59,0,0,0,4.08-.39Zm-.32-18.47a2,2,0,0,1,.68,1.58,1.94,1.94,0,0,1-.68,1.57,3.27,3.27,0,0,1-3.72,0,1.91,1.91,0,0,1-.68-1.57,1.93,1.93,0,0,1,.68-1.58,3.32,3.32,0,0,1,3.72,0Z"/><path class="cls-1" d="M64.76,40.85q1.81,1.83,1.81,5.79c0,2.65-.6,4.57-1.81,5.78a6.81,6.81,0,0,1-5,1.82,6.8,6.8,0,0,1-5-1.82c-1.22-1.21-1.83-3.13-1.83-5.78s.61-4.57,1.83-5.79a6.77,6.77,0,0,1,5-1.83A6.77,6.77,0,0,1,64.76,40.85Zm-6.94.47a14.81,14.81,0,0,0-.72,5.32A14.63,14.63,0,0,0,57.82,52c.47,1.15,1.11,1.73,1.91,1.73s1.46-.57,1.93-1.72a15.17,15.17,0,0,0,.69-5.32,14.76,14.76,0,0,0-.71-5.33c-.47-1.15-1.11-1.73-1.91-1.73S58.29,40.16,57.82,41.32Zm5.51-9.23a1.9,1.9,0,0,1-.42,1.15,5.5,5.5,0,0,1-.77.74c-.3.25-.63.51-1,.77a27.88,27.88,0,0,0-3,2.37l-.3-.25a30,30,0,0,0,1.56-3.44c.24-.57.43-1,.57-1.29a3.55,3.55,0,0,1,.52-.8,1.6,1.6,0,0,1,1.31-.67,1.39,1.39,0,0,1,1,.36A1.24,1.24,0,0,1,63.33,32.09Z"/><path class="cls-1" d="M80.59,41.71a1.41,1.41,0,0,1-.39-1.07,3.2,3.2,0,0,1,.33-1.37,4.9,4.9,0,0,0-1.1.63,3.21,3.21,0,0,0-.74.88,4,4,0,0,1,.87,2.68A3.84,3.84,0,0,1,78,46.78a6.62,6.62,0,0,1-4,1.12h-.5c-.77.45-1.15.94-1.15,1.48s.37.89,1.12.89h3a7.47,7.47,0,0,1,3.93.91A3.06,3.06,0,0,1,81.9,54,4,4,0,0,1,81,56.54a6.1,6.1,0,0,1-2.75,1.86,12.66,12.66,0,0,1-4.52.7,11.32,11.32,0,0,1-4.34-.69c-1.09-.45-1.64-1.11-1.64-2a2,2,0,0,1,.79-1.55,5.53,5.53,0,0,1,2.31-1.08l.25.45a2.46,2.46,0,0,0-1,1.92A2,2,0,0,0,71.15,58a5.88,5.88,0,0,0,2.93.62,5.77,5.77,0,0,0,3.17-.78,2.47,2.47,0,0,0,1.22-2.2,1.75,1.75,0,0,0-.69-1.46,4,4,0,0,0-2.38-.53H73.66a5.45,5.45,0,0,1-2.79-.6,2,2,0,0,1-1-1.83,2.69,2.69,0,0,1,.72-1.84,7.57,7.57,0,0,1,2.21-1.56,5.66,5.66,0,0,1-3.19-1.34,3.94,3.94,0,0,1-1.17-3A3.86,3.86,0,0,1,70,40.14,6.65,6.65,0,0,1,74,39a6.25,6.25,0,0,1,4.27,1.31,4.16,4.16,0,0,1,1.31-1.2,3.21,3.21,0,0,1,1.6-.45,1.79,1.79,0,0,1,1.32.49A1.71,1.71,0,0,1,83,40.44a1.64,1.64,0,0,1-.43,1.22,1.39,1.39,0,0,1-1,.43A1.29,1.29,0,0,1,80.59,41.71Zm-5.4,4.79a8.07,8.07,0,0,0,.4-3,8.07,8.07,0,0,0-.4-3,1.24,1.24,0,0,0-2.38,0,8.07,8.07,0,0,0-.4,3,8.07,8.07,0,0,0,.4,3,1.24,1.24,0,0,0,2.38,0Z"/><path class="cls-1" d="M95.2,49.72l.5.16a6.67,6.67,0,0,1-2,3.09,5.2,5.2,0,0,1-3.59,1.27,6.08,6.08,0,0,1-4.7-1.89,7.88,7.88,0,0,1-1.75-5.57A8.15,8.15,0,0,1,85.53,41a6.51,6.51,0,0,1,5-2q5.25,0,5.25,6.2H87.91c0,.28,0,.72,0,1.31a7.84,7.84,0,0,0,.52,3.07,3.87,3.87,0,0,0,1.34,1.79,3.09,3.09,0,0,0,1.77.56A4.23,4.23,0,0,0,95.2,49.72Zm-6.53-8.87a10.11,10.11,0,0,0-.82,3.84h4.39A10.75,10.75,0,0,0,91.8,41c-.32-.95-.81-1.43-1.46-1.43A1.93,1.93,0,0,0,88.67,40.85Z"/><path class="cls-1" d="M110.67,40.11a3.09,3.09,0,0,1,.67,1.37,10.44,10.44,0,0,1,.19,2.26v7.51a2.32,2.32,0,0,0,.41,1.58,1.83,1.83,0,0,0,1.38.43v.59c-1.86-.08-3.09-.11-3.69-.11s-1.77,0-3.63.11v-.59a1.42,1.42,0,0,0,1.18-.43,2.73,2.73,0,0,0,.33-1.58V42.57a3.19,3.19,0,0,0-.38-1.74,1.48,1.48,0,0,0-1.35-.58,2.52,2.52,0,0,0-2,.93,3.43,3.43,0,0,0-.81,2.31v7.76a2.71,2.71,0,0,0,.34,1.58,1.38,1.38,0,0,0,1.17.43v.59c-1.71-.08-2.86-.11-3.46-.11s-1.84,0-3.85.11v-.59a1.81,1.81,0,0,0,1.39-.43A2.39,2.39,0,0,0,99,51.25v-8.8a3.47,3.47,0,0,0-.39-1.87A1.54,1.54,0,0,0,97.21,40v-.59a17.08,17.08,0,0,0,1.73.08A17.56,17.56,0,0,0,103,39.1v2.52a4.64,4.64,0,0,1,4.58-2.6A3.89,3.89,0,0,1,110.67,40.11Z"/><path class="cls-1" d="M126.25,49.72l.5.16a6.72,6.72,0,0,1-2,3.09,5.22,5.22,0,0,1-3.59,1.27,6.09,6.09,0,0,1-4.71-1.89,7.93,7.93,0,0,1-1.74-5.57A8.1,8.1,0,0,1,116.59,41a6.48,6.48,0,0,1,5-2q5.25,0,5.25,6.2H119c0,.28,0,.72,0,1.31a7.84,7.84,0,0,0,.52,3.07,3.87,3.87,0,0,0,1.34,1.79,3.12,3.12,0,0,0,1.77.56A4.22,4.22,0,0,0,126.25,49.72Zm-6.52-8.87a10.08,10.08,0,0,0-.83,3.84h4.39a10.77,10.77,0,0,0-.43-3.65c-.33-.95-.82-1.43-1.47-1.43A1.91,1.91,0,0,0,119.73,40.85Z"/><path class="cls-1" d="M135.91,39.28a4.66,4.66,0,0,1,1.37.61.9.9,0,0,0,.5.19.55.55,0,0,0,.44-.26,1.67,1.67,0,0,0,.23-.77H139c-.07,1-.11,2.59-.11,4.91h-.59a7,7,0,0,0-1.1-3.08,2.81,2.81,0,0,0-2.47-1.25,2,2,0,0,0-1.39.48,1.65,1.65,0,0,0-.54,1.31,2.28,2.28,0,0,0,.64,1.63,14.61,14.61,0,0,0,2,1.67l.81.58a14.52,14.52,0,0,1,2.52,2.29,3.89,3.89,0,0,1,.81,2.52,3.48,3.48,0,0,1-.72,2.17A4.47,4.47,0,0,1,137,53.74a6.87,6.87,0,0,1-2.65.5,5.49,5.49,0,0,1-2.63-.59,13.73,13.73,0,0,0-1.28-.58.42.42,0,0,0-.49.18,1.88,1.88,0,0,0-.32.79H129c.08-1.06.11-2.92.11-5.58h.59c.37,3.42,1.63,5.14,3.77,5.14a2.08,2.08,0,0,0,1.38-.49,1.89,1.89,0,0,0,.58-1.5,2.79,2.79,0,0,0-.35-1.39,4.63,4.63,0,0,0-.88-1.09c-.36-.32-.89-.76-1.6-1.31s-1.47-1.21-1.91-1.62a5.84,5.84,0,0,1-1.12-1.46,3.87,3.87,0,0,1-.46-1.87,3.33,3.33,0,0,1,1.4-2.82A5.57,5.57,0,0,1,134,39,7.07,7.07,0,0,1,135.91,39.28Z"/><path class="cls-1" d="M28.55,9.56v.72a3,3,0,0,0-1.37.9,6.31,6.31,0,0,0-1.08,2.2L21.32,28.23a11.66,11.66,0,0,0-1.18,0,11.47,11.47,0,0,0-1.16,0L14.09,14.89l-4,13.34a10.63,10.63,0,0,0-1.15,0,11.66,11.66,0,0,0-1.18,0L2.09,12.33a3.27,3.27,0,0,0-1-1.63A1.91,1.91,0,0,0,0,10.32V9.56c1.56.15,3.26.22,5.11.22,1.19,0,2.75-.07,4.67-.22v.76a5.79,5.79,0,0,0-1.71.18.8.8,0,0,0-.52.86,2.86,2.86,0,0,0,.18,1L11,22.51l3.92-13,1.33,0,1.29,0,4.68,13.73L24.45,16A9.93,9.93,0,0,0,25,13.3a2.72,2.72,0,0,0-2.84-3V9.56c1.13.08,2.36.11,3.71.11A23.06,23.06,0,0,0,28.55,9.56Z"/><path class="cls-1" d="M30.33,27.22a4.31,4.31,0,0,1-1.13-3.13A4.19,4.19,0,0,1,30,21.41a5.79,5.79,0,0,1,2.05-1.63,28,28,0,0,1,3.08-1.23,15.9,15.9,0,0,0,2.89-1.24A1.72,1.72,0,0,0,39,15.78V13a3.6,3.6,0,0,0-.7-2.35,2.67,2.67,0,0,0-2.18-.85,3.64,3.64,0,0,0-2.62.86A3.32,3.32,0,0,1,35,11.72a2.69,2.69,0,0,1,.56,1.69,2.44,2.44,0,0,1-.83,1.94,3,3,0,0,1-2,.72,2.44,2.44,0,0,1-1.95-.79,3,3,0,0,1-.68-2,2.85,2.85,0,0,1,.49-1.7,4.79,4.79,0,0,1,1.49-1.32,8.52,8.52,0,0,1,2.39-.9,14.36,14.36,0,0,1,3.11-.32,11.58,11.58,0,0,1,3.06.36,4.81,4.81,0,0,1,2.15,1.22,4,4,0,0,1,1.06,1.94,14.33,14.33,0,0,1,.27,3.13v9.78a3.21,3.21,0,0,0,.17,1.23.61.61,0,0,0,.63.36,2.24,2.24,0,0,0,1.29-.62l.36.62a6.07,6.07,0,0,1-4,1.33,3.82,3.82,0,0,1-2.76-.8,2.94,2.94,0,0,1-.83-2.12,5.84,5.84,0,0,1-5.29,2.92A4.53,4.53,0,0,1,30.33,27.22ZM39,24.63V17.26a5.43,5.43,0,0,1-1.84,1.58A8.83,8.83,0,0,0,35,20.64a4.06,4.06,0,0,0-.72,2.59,3.27,3.27,0,0,0,.61,2.17,2,2,0,0,0,1.62.7A3,3,0,0,0,39,24.63Z"/><path class="cls-1" d="M55,24.81a3.05,3.05,0,0,0,.5,2,2.36,2.36,0,0,0,1.8.56v.75c-2.5-.09-4.1-.14-4.82-.14s-2.47,0-5,.14V27.4a2.37,2.37,0,0,0,1.78-.56,3,3,0,0,0,.52-2V4.31a4.36,4.36,0,0,0-.52-2.4,2,2,0,0,0-1.78-.76V.4c.76.07,1.51.1,2.23.1A23,23,0,0,0,55,0Z"/><path class="cls-1" d="M88.25,26.84A2.37,2.37,0,0,0,90,27.4v.75c-2.39-.09-4-.14-4.74-.14s-2.16,0-4.46.14V27.4a1.53,1.53,0,0,0,1.35-.54,3.89,3.89,0,0,0,.37-2.05V13.63a4.53,4.53,0,0,0-.44-2.25,1.84,1.84,0,0,0-1.71-.74,3,3,0,0,0-2.32,1.12,4.78,4.78,0,0,0-1.17,2.73V24.81a3.35,3.35,0,0,0,.45,2A2,2,0,0,0,79,27.4v.75c-2.3-.09-3.81-.14-4.53-.14s-2.15,0-4.45.14V27.4a1.51,1.51,0,0,0,1.34-.56,3.79,3.79,0,0,0,.38-2V13.63a5,5,0,0,0-.39-2.25,1.6,1.6,0,0,0-1.55-.74,3.1,3.1,0,0,0-2.46,1.21,4.38,4.38,0,0,0-1,3v10a3.88,3.88,0,0,0,.38,2A1.51,1.51,0,0,0,68,27.4v.75c-2.11-.09-3.53-.14-4.24-.14s-2.38,0-5,.14V27.4a2.35,2.35,0,0,0,1.8-.56,3.05,3.05,0,0,0,.5-2V13.48a4.44,4.44,0,0,0-.5-2.41,2,2,0,0,0-1.8-.75V9.56a21.47,21.47,0,0,0,2.23.11,22.85,22.85,0,0,0,5.25-.5V12.4a5.68,5.68,0,0,1,5.58-3.34,5,5,0,0,1,4,1.4,3.85,3.85,0,0,1,.9,2.16,5.89,5.89,0,0,1,2.44-2.75,7.39,7.39,0,0,1,3.53-.81,5,5,0,0,1,4,1.4,3.84,3.84,0,0,1,.83,1.77,13.49,13.49,0,0,1,.25,2.91v9.67A3,3,0,0,0,88.25,26.84Z"/><path class="cls-1" d="M98.84,24.81a3,3,0,0,0,.52,2,2.37,2.37,0,0,0,1.78.56v.75c-2.39-.09-4-.14-4.78-.14s-2.41,0-5,.14V27.4a2.35,2.35,0,0,0,1.8-.56,3,3,0,0,0,.51-2V13.48a4.43,4.43,0,0,0-.51-2.41,2,2,0,0,0-1.8-.75V9.56a21.47,21.47,0,0,0,2.23.11,22.85,22.85,0,0,0,5.25-.5ZM98.43,1a2.52,2.52,0,0,1,.88,2,2.5,2.5,0,0,1-.88,2,4.28,4.28,0,0,1-4.78,0,2.5,2.5,0,0,1-.88-2,2.52,2.52,0,0,1,.88-2,4.28,4.28,0,0,1,4.78,0Z"/><path class="cls-1" d="M114.56,9.35a6.28,6.28,0,0,1,2,.79A4.17,4.17,0,0,1,118,11.6a3.64,3.64,0,0,1,.52,1.92,2.83,2.83,0,0,1-.79,2.07,2.74,2.74,0,0,1-2,.81,2.78,2.78,0,0,1-2-.72,2.54,2.54,0,0,1-.76-1.94,2.78,2.78,0,0,1,.68-1.87,3.43,3.43,0,0,1,1.69-1.08,1.81,1.81,0,0,0-.88-.63,3.34,3.34,0,0,0-1.27-.24,3.7,3.7,0,0,0-3.36,2.36,13.49,13.49,0,0,0-1.21,6.17c0,2.56.46,4.41,1.37,5.53a4.21,4.21,0,0,0,3.41,1.69A5.32,5.32,0,0,0,115.8,25,6.16,6.16,0,0,0,118,22.76l.61.22a9.05,9.05,0,0,1-2.51,4,6.57,6.57,0,0,1-4.64,1.67,8,8,0,0,1-6-2.45q-2.34-2.45-2.34-7.26a11.57,11.57,0,0,1,1.15-5.39,7.9,7.9,0,0,1,3.17-3.37A9.25,9.25,0,0,1,112,9.06,10.81,10.81,0,0,1,114.56,9.35Z"/><path class="cls-1" d="M139.72,26.81a2.07,2.07,0,0,0,.94.59v.75c-1.92-.09-3.18-.14-3.78-.14-.79,0-2.33,0-4.63.14V27.4a1.52,1.52,0,0,0,.79-.18.56.56,0,0,0,.28-.5,1.38,1.38,0,0,0-.18-.54l-3.56-6.44a2.21,2.21,0,0,0-.75-.83,2.69,2.69,0,0,0-1-.28v6.18a3.26,3.26,0,0,0,.47,2,2.12,2.12,0,0,0,1.69.56v.75c-2.4-.09-4-.14-4.67-.14s-2.47,0-5,.14V27.4a2.36,2.36,0,0,0,1.78-.56,3,3,0,0,0,.53-2V4.31a4.26,4.26,0,0,0-.53-2.4,2,2,0,0,0-1.78-.76V.4c.77.07,1.51.1,2.23.1a22.89,22.89,0,0,0,5.25-.5V17.94a4.19,4.19,0,0,0,1.24-.29A2.43,2.43,0,0,0,130,17l2.73-2.66a3.33,3.33,0,0,0,1.19-2.2,1.48,1.48,0,0,0-.76-1.31,4.16,4.16,0,0,0-2-.56V9.56c1.32.08,2.72.11,4.21.11,2,0,3.39,0,4.2-.11v.72a9.92,9.92,0,0,0-4.49,2.77l-2.3,2.38,6,10.1A14.27,14.27,0,0,0,139.72,26.81Z"/></g></g></svg>