<?xml version="1.0" encoding="utf-8"?>
<!-- Generator: Adobe Illustrator 23.0.0, SVG Export Plug-In . SVG Version: 6.00 Build 0)  -->
<svg version="1.1" id="a3021eee-13c5-481a-ad89-41ba2f75e20a"
	 xmlns="http://www.w3.org/2000/svg" xmlns:xlink="http://www.w3.org/1999/xlink" x="0px" y="0px" viewBox="0 0 564 659"
	 style="enable-background:new 0 0 564 659;" xml:space="preserve">
<style type="text/css">
	.st0{fill:#85858C;}
	.st1{fill:#FFB8B8;}
	.st2{fill:#111111;}
	.st3{fill:#2F2E41;}
	.st4{fill:#6C63FF;}
	.st5{opacity:0.7;}
	.st6{fill:url(#SVGID_1_);}
	.st7{opacity:0.1;enable-background:new    ;}
	.st8{fill:#EEEEEE;}
</style>
<title>social_notifications</title>
<ellipse class="st0" cx="282" cy="642" rx="282" ry="17"/>
<path class="st1" d="M332.6,154.8c0,0,7.9,102.7-3.2,105.9s-50.6,26.9-113.8,20.5c0,0-61.6,33.2-52.1,1.6s52.1-23.7,52.1-23.7
	s75.9-15.8,79-26.9s-9.5-56.9-4.7-58.5S332.6,154.8,332.6,154.8z"/>
<path class="st2" d="M237.9,333.9c0,0,6.2,148.4,15.6,170.5c7.9,18.4,12.5,78.5,13.8,98.1c0.3,3.9,0.4,6.2,0.4,6.2s25.3,0,26.9-6.3
	s6.3-75.9,0-98s8.1-175.3,8.1-175.3L237.9,333.9z"/>
<path class="st2" d="M274.1,600.8c0,0-15.8,4.7-19,11.1s-55.3,17.4-39.5,25.3s63.2-6.3,63.2-6.3s25.3-1.6,23.7-11.1
	s-7.3-21.2-7.3-21.2L274.1,600.8z"/>
<path class="st2" d="M318.3,617.8c0,0-15.8,4.7-19,11.1s-55.3,17.4-39.5,25.3s63.2-6.3,63.2-6.3s25.3-1.6,23.7-11.1
	s-7.3-21.2-7.3-21.2L318.3,617.8z"/>
<path class="st2" d="M252,330.2l22.1,37.9L311,500c0,0-3.7,121,1,121c4.7,0,30,7.9,31.6,0c1.3-6.7,19-70.6,10.2-113.2
	c-5.7-26.9-9.4-54.2-11-81.6l-3.9-73.8c0,0,15.8-28.4-1.6-33.2S252,330.2,252,330.2z"/>
<circle class="st1" cx="272.5" cy="48.9" r="37.9"/>
<path class="st1" d="M267.8,74.2c0,0,6.3,50.6,4.7,53.7c-1.6,3.1,37.9-34.7,37.9-34.7S296.2,71,299.4,60L267.8,74.2z"/>
<path class="st0" d="M356.3,124.8c0,0-44.2-31.6-45.8-37.9l-33.2,28.4l-5.6-6.7c0,0-26,25.7-26,36.7c0,11.1-1.6,44.2,3.2,53.7
	s-14.2,129.6-14.2,129.6s15.8,14.2,17.4,15.8s64.8-9.5,64.8-9.5s31.6-3.2,31.6-7.9s-9.5-75.9-6.3-94.8S356.3,124.8,356.3,124.8z"/>
<path class="st3" d="M256.3,30c5.2-1.8,10.9-2.8,16.2-1.3c7.5,2.2,12.7,8.7,18.3,14.1s13.4,10.2,20.8,7.7c-0.4-3.2,0.4-6.4,2.3-9
	c0.8-1.1,1.9-2.1,2.1-3.4c0.3-2-1.4-3.8-1.9-5.8c-0.9-3.5,1.6-8.3-1.5-10.2c-0.8-0.5-1.8-0.6-2.6-1.2c-3.1-2.1,0.3-7.5-1.7-10.6
	c-0.6-0.8-1.4-1.5-2.3-1.9c-14.7-8.5-32.6-8.6-49.6-8.3c-2.4,0-5.7,1.2-5,3.5c-3.2-2.3-7.4,0.9-10,3.9l-5.3,6.1
	c-2.5,2.7-4.7,5.6-6.5,8.7c-1.6,3.1-2,7.8,1.2,9.2c-2.4-1-5.3,13.2,5.7,10.8C243.1,41,249.3,32.5,256.3,30z"/>
<path class="st0" d="M331,127.9l25.3-3.2c0,0,25.3,49,11.1,56.9s-50.6,14.2-50.6,11.1S331,127.9,331,127.9z"/>
<path class="st2" d="M462.4,632.1c-0.3-0.4-6.5-10.8-8.6-32.4c-2-19.8-0.7-53.1,16.6-99.7c32.8-88.1-7.6-159.3-8-160l2-1.2
	c0.1,0.2,10.5,18.3,16.7,47.2c8.1,38.3,5.2,78.1-8.5,114.7c-32.7,88-8.4,129.6-8.1,130.1L462.4,632.1z"/>
<circle class="st4" cx="449.6" cy="319.9" r="14.9"/>
<circle class="st4" cx="496.8" cy="375.1" r="14.9"/>
<circle class="st4" cx="464.6" cy="411.9" r="14.9"/>
<circle class="st4" cx="503.7" cy="443" r="14.9"/>
<circle class="st4" cx="453.1" cy="491.2" r="14.9"/>
<path class="st2" d="M471.5,632.6c0,0-14.9-36.8,29.9-64.4L471.5,632.6z"/>
<path class="st2" d="M453.1,632c0,0-6.8-39.1-59.4-38.8L453.1,632z"/>
<g>
	<g class="st5">
		
			<linearGradient id="SVGID_1_" gradientUnits="userSpaceOnUse" x1="351.1033" y1="795.242" x2="351.1033" y2="748.342" gradientTransform="matrix(1 0 0 1 -149.8033 -495.8924)">
			<stop  offset="0" style="stop-color:#808080;stop-opacity:0.25"/>
			<stop  offset="0.5351" style="stop-color:#808080;stop-opacity:0.12"/>
			<stop  offset="1" style="stop-color:#808080;stop-opacity:0.1"/>
		</linearGradient>
		<path class="st6" d="M216.8,260.8v-8.4h-41.9v38.7c0,4.5,3.7,8.2,8.2,8.2h25.5c4.5,0,8.2-3.7,8.2-8.2v-8.6c6,0,10.9-4.9,10.9-10.9
			C227.7,265.7,222.8,260.9,216.8,260.8z M216.8,278.4V265c3.7,0,6.7,3,6.7,6.7S220.5,278.4,216.8,278.4L216.8,278.4z"/>
	</g>
	<path class="st4" d="M215.5,262.2c-5.5,0-9.9,4.4-9.9,9.9s4.4,9.9,9.9,9.9s9.9-4.4,9.9-9.9S221,262.2,215.5,262.2L215.5,262.2z
		 M215.5,278.2c-3.4,0-6.1-2.7-6.1-6.1s2.7-6.1,6.1-6.1s6.1,2.7,6.1,6.1S218.9,278.2,215.5,278.2L215.5,278.2z"/>
	<path class="st7" d="M215.5,262.2c-5.5,0-9.9,4.4-9.9,9.9s4.4,9.9,9.9,9.9s9.9-4.4,9.9-9.9S221,262.2,215.5,262.2L215.5,262.2z
		 M215.5,278.2c-3.4,0-6.1-2.7-6.1-6.1s2.7-6.1,6.1-6.1s6.1,2.7,6.1,6.1S218.9,278.2,215.5,278.2L215.5,278.2z"/>
	<path class="st4" d="M177.3,254.5h38.2l0,0v35.3c0,4.1-3.4,7.5-7.5,7.5h-23.2c-4.1,0-7.5-3.4-7.5-7.5V254.5L177.3,254.5z"/>
	<path class="st7" d="M208.6,254.5v35.3c0,4.1-3.3,7.5-7.5,7.5h3.8c4.1,0,7.5-3.3,7.5-7.5v-35.3L208.6,254.5L208.6,254.5z"/>
	<path class="st8" d="M184.8,226c-0.7,0-1.3,0.3-1.7,0.9c-0.5,0.9,0.4,1.9,1.2,2.6c1.5,1.2,3.1,2.3,4.2,3.9s1.4,3.9,0.2,5.4
		c-1.5,2-5,2.4-5.4,4.9c-0.2,1.6,1.2,3,2.6,3.7c3.4,2,7.9,2.5,10.4,5.6c1-2.1,3.3-3.3,5.6-3.9c2.3-0.5,4.7-0.5,7-0.8
		c0.8,0,1.5-0.4,1.9-1c0.7-1.3-1.2-2.9-0.6-4.2c0.5-1,1.9-0.9,3-1.3c1.7-0.7,2.4-2.9,1.9-4.6c-0.5-1.8-1.9-3.1-3.3-4.3
		c-3.9-3-8.5-4.8-13.2-6.1c-2.2-0.6-4.8-1.5-7-1.6C189.5,225,187,225.7,184.8,226z"/>
</g>
<path class="st1" d="M365.7,169c0,0,7.9,102.7-3.2,105.9s-50.6,26.9-113.8,20.5c0,0-61.6,33.2-52.1,1.6s52.1-23.7,52.1-23.7
	s75.9-15.8,79-26.9s-9.5-56.9-4.7-58.5S365.7,169,365.7,169z"/>
</svg>
