<?xml version="1.0" encoding="utf-8"?>
<!-- Generator: Adobe Illustrator 23.0.0, SVG Export Plug-In . SVG Version: 6.00 Build 0)  -->
<svg version="1.1" id="e07e5ae7-3299-40d2-9315-78b8b3e13d89"
	 xmlns="http://www.w3.org/2000/svg" xmlns:xlink="http://www.w3.org/1999/xlink" x="0px" y="0px" viewBox="0 0 1075 766.4"
	 style="enable-background:new 0 0 1075 766.4;" xml:space="preserve">
<style type="text/css">
	.st0{fill:#807FA5;}
	.st1{fill:#8F8FF9;}
	.st2{fill:#3F3D56;}
	.st3{fill:#FFFFFF;}
	.st4{fill:#6C63FF;}
	.st5{fill:#F0F0F0;}
	.st6{fill:#F2F2F2;}
	.st7{fill:#575770;}
	.st8{fill:#FFB8B8;}
	.st9{fill:#3F3244;}
	.st10{fill:#2F2E41;}
</style>
<title>mobile_prototyping</title>
<ellipse class="st0" cx="952" cy="736.4" rx="123" ry="30"/>
<path class="st1" d="M521.3,102.9v397c0,9.8-8,17.8-17.8,17.8H342.3c-9.8,0-17.8-7.9-17.8-17.8c0,0,0,0,0-0.1v-397
	c0-9.9,8-17.8,17.8-17.8c0,0,0,0,0,0h24.1v3.1c0,8.1,6.6,14.7,14.7,14.7h82c8.1,0,14.7-6.6,14.7-14.7v-3.1h25.7
	C513.3,85.1,521.3,93,521.3,102.9C521.3,102.9,521.3,102.9,521.3,102.9z"/>
<rect x="331.6" y="151.4" class="st2" width="182.7" height="89"/>
<path class="st3" d="M405.1,212.5c4.8,17.7,21.2,28.6,21.2,28.6s8.6-17.7,3.8-35.4S409,177.1,409,177.1S400.3,194.8,405.1,212.5z"/>
<path class="st4" d="M412.2,208.7c13.1,12.8,14.7,32.4,14.7,32.4s-19.7-1.1-32.8-13.9s-14.7-32.4-14.7-32.4S399,195.9,412.2,208.7z"
	/>
<path class="st3" d="M448.6,212.5c-4.8,17.7-21.2,28.6-21.2,28.6s-8.6-17.7-3.8-35.4s21.2-28.6,21.2-28.6S453.4,194.8,448.6,212.5z"
	/>
<path class="st4" d="M441.6,208.7c-13.1,12.8-14.7,32.4-14.7,32.4s19.7-1.1,32.8-13.9c13.1-12.8,14.7-32.4,14.7-32.4
	S454.7,195.9,441.6,208.7z"/>
<rect x="347.9" y="290.2" class="st5" width="150" height="8.2"/>
<rect x="347.9" y="303.5" class="st5" width="150" height="8.2"/>
<rect x="347.9" y="316.8" class="st5" width="150" height="8.2"/>
<rect x="347.9" y="330.1" class="st5" width="150" height="8.2"/>
<rect x="402.4" y="385.4" transform="matrix(0.5789 -0.8154 0.8154 0.5789 -152.8535 515.7724)" class="st5" width="41" height="41"/>
<path class="st2" d="M427.5,443c-5.2,0-9.5-4.2-9.5-9.5c0-5.2,4.2-9.5,9.5-9.5c5.2,0,9.5,4.2,9.5,9.5
	C436.9,438.8,432.7,443,427.5,443z M427.5,425.7c-4.3,0-7.9,3.5-7.9,7.9c0,4.3,3.5,7.9,7.9,7.9c4.3,0,7.9-3.5,7.9-7.9l0,0
	C435.3,429.2,431.8,425.7,427.5,425.7L427.5,425.7z"/>
<path class="st6" d="M196.9,17.8v397c0,9.8-8,17.8-17.8,17.8H17.8C8,432.7,0,424.7,0,414.9c0,0,0,0,0-0.1v-397C0,8,8,0,17.8,0
	c0,0,0,0,0,0H42v3.1c0,8.1,6.6,14.7,14.7,14.7h82c8.1,0,14.7-6.6,14.7-14.7V0H179C188.9,0,196.9,8,196.9,17.8
	C196.9,17.8,196.9,17.8,196.9,17.8z"/>
<path class="st2" d="M176.4,216.8H18.9v-141h157.5V216.8z M20.5,215.2h154.4V77.4H20.5L20.5,215.2z"/>
<rect x="96.9" y="41.7" transform="matrix(0.6665 -0.7455 0.7455 0.6665 -76.4965 121.5967)" class="st2" width="1.6" height="209.2"/>
<rect x="-6.9" y="145.5" transform="matrix(0.7455 -0.6665 0.6665 0.7455 -72.6495 102.3047)" class="st2" width="209.2" height="1.6"/>
<rect x="19.7" y="257.7" class="st2" width="155.9" height="1.6"/>
<rect x="19.7" y="271.9" class="st2" width="155.9" height="1.6"/>
<rect x="19.7" y="286.1" class="st2" width="155.9" height="1.6"/>
<rect x="19.7" y="300.3" class="st2" width="78" height="1.6"/>
<rect x="19.7" y="314.4" class="st2" width="78" height="1.6"/>
<path class="st6" d="M845,17.8v397c0,9.8-8,17.8-17.8,17.8H666c-9.8,0-17.8-7.9-17.8-17.8c0,0,0,0,0-0.1v-397C648.2,8,656.2,0,666,0
	c0,0,0,0,0,0h24.1v3.1c0,8.1,6.6,14.7,14.7,14.7h82c8.1,0,14.7-6.6,14.7-14.7V0h25.7C837,0,845,8,845,17.8
	C845,17.8,845,17.8,845,17.8z"/>
<rect x="669.4" y="203.4" class="st2" width="155.9" height="1.6"/>
<rect x="669.4" y="244.3" class="st2" width="155.9" height="1.6"/>
<rect x="669.4" y="285.3" class="st2" width="155.9" height="1.6"/>
<circle class="st4" cx="743.2" cy="118" r="25.6"/>
<rect x="786" y="196.3" class="st4" width="11" height="25.2"/>
<rect x="689.1" y="236.5" class="st4" width="11" height="25.2"/>
<rect x="753.7" y="276.6" class="st4" width="11" height="25.2"/>
<path class="st2" d="M746.6,146.7c-17.4,0-31.5-14.1-31.5-31.5s14.1-31.5,31.5-31.5s31.5,14.1,31.5,31.5c0,0,0,0,0,0
	C778.1,132.6,764,146.7,746.6,146.7z M746.6,85.3c-16.5,0-29.9,13.4-29.9,29.9c0,16.5,13.4,29.9,29.9,29.9
	c16.5,0,29.9-13.4,29.9-29.9C776.5,98.7,763.1,85.3,746.6,85.3L746.6,85.3z"/>
<rect x="248" y="197.5" transform="matrix(0.7711 -0.6367 0.6367 0.7711 -100.3915 215.0889)" class="st2" width="2" height="99.3"/>
<path class="st2" d="M288.2,294.8c-5.2-3-12.5-6.2-18.2-7.1l9.5-3.4l5.1-8.7C284.5,281.3,286.3,289,288.2,294.8z"/>
<rect x="545.7" y="246.2" transform="matrix(0.6365 -0.7713 0.7713 0.6365 25.7423 548.9714)" class="st2" width="99.3" height="2"/>
<path class="st2" d="M556,294.8c2-5.7,3.7-13.4,3.5-19.2l5.1,8.7l9.5,3.4C568.5,288.6,561.3,291.7,556,294.8z"/>
<path class="st7" d="M1016.5,377.9c0,0,0,146-23,199l-53,119c0,0-34-2-36-16l40-124l24-73l6-114L1016.5,377.9z"/>
<path class="st7" d="M983.5,381.9l-9,61l6,134l3,74c0,0,12,33,8,36l-8,6c0,0-32-4-33-6s-20-153-20-153s-39-122-37-124s11-32,11-32
	L983.5,381.9z"/>
<path class="st7" d="M990.5,682.9l4,23c0,0,11,47,0,47s-31-13-32-21s2-44,2-44L990.5,682.9z"/>
<path class="st7" d="M939.5,690.9c0,0,8,16,13,18s27.8,15.1,14.4,23.5s-27.4,0.5-27.4,0.5l-46-25c0,0,6-25,15-27
	S939.5,690.9,939.5,690.9z"/>
<circle class="st8" cx="929.5" cy="120.9" r="36"/>
<path class="st8" d="M959.5,123.9c0,0,7,46,14,52s-15,27-25,26s-21-23-21-23s3-29-2-37S959.5,123.9,959.5,123.9z"/>
<path class="st0" d="M951.5,182.9l17-15.7c5.5,6.9,12.3,12.5,20,16.7c13,7-25,79-25,79l-61-76c0,0,19.4-12.9,25.7-17.9L951.5,182.9z
	"/>
<path class="st0" d="M961.5,243.9c0,0,26.8-46.7,23.9-61.9c0,0,39.1,9.9,41.1,22.9s-19,60-19,60s17,119,7,120c-10,1-110,2-112-3
	s2-20-4-25s-13-2-10-10s16-18,12-24s-5-4-4-8s-2-57-2-57s-21-58-16-62s31.2-13.9,31.2-13.9L961.5,243.9z"/>
<path class="st8" d="M1041.5,399.9c0,0-3,40-20,38c-17-2,3-45,3-45L1041.5,399.9z"/>
<path class="st8" d="M892.5,398.9c0,0,6,24,13,22v-28l-3-5L892.5,398.9z"/>
<path class="st9" d="M958.9,126c-0.1-1-0.4-2-1-2.9c-0.6-0.7-1.3-1.1-2.2-1.4c-4.6-1.4-9.6,0.7-11.7,5c-0.9,2-1.4,4.6-3.4,5.5
	c-2.4,1-5-1.2-5.9-3.6s-0.9-5.1-2.2-7.4c-1.5-2.7-4.4-4.3-7.4-4.9c-2.5-0.5-5.5-0.8-6.6-3.1c-0.4-0.9-0.5-1.8-0.5-2.7
	c0-3.3,0.6-6.7,1.8-9.8c-9.8-2-18.5,7.6-28.5,7.8c-1.3,0.1-2.5-0.2-3.7-0.7c-2.2-1.2-3.2-3.8-3.8-6.2c-0.7-2.6-1.3-5.2-1.8-7.8
	l3.2,1.5c-0.9-1.7-1.4-3.6-1.4-5.5c1.7-0.2,3.3,0,4.9,0.4l0.2-5.7c2.5,3.1,7.4,2,11.1,0.6c7.2-2.8,14.3-5.8,21.8-7.4
	s15.6-1.7,22.7,1.2c7.5,3.1,13.3,9.2,18.3,15.5c2.8,3.5,5.5,7.2,7.1,11.4c1.9,5.7,1.9,11.9-0.1,17.6c-1.6,5.1-4.7,11.3-8.8,14.9
	C959.8,134.6,959.6,129.9,958.9,126z"/>
<path class="st0" d="M890.5,192.9l-13,3c0,0-15,16-16,31s-1,90-1,90l19,62c0,0-2,14,0,14s3-3,3,1s-5,0,0,4l10,8l16.7-22.2
	c0,0,1.3-8.8-1.7-10.8s-3-3-2-6s3-4,2-6s-4-5-4-7s0-4-1-5s-8-25-8-25l4-78L890.5,192.9z"/>
<path class="st0" d="M1016.5,197.9l10,5c0,0,16,48,16,90s3,70,3,70s5,12,3,12s-4,0-2,3s3,2,2,5s-2-2-1,3s0,7-2,7s-2,13-2,13l-24-9
	c0,0,4-5,3-7c-0.6-1.2-0.9-2.6-1-4c0,0,5-1,0-3c-5-2-3-2-2-8s4-5,1-6s-21-94-21-94L1016.5,197.9z"/>
<circle class="st10" cx="951.5" cy="183.2" r="3"/>
<circle class="st10" cx="951.5" cy="193.2" r="3"/>
</svg>
